<svg viewBox="0 0 580 400" xmlns="http://www.w3.org/2000/svg">
 <!-- Created with Method Draw - http://github.com/duopixel/Method-Draw/ -->

  <path id="svg_3" d="m265.10665,228.0827l-38.72607,49.36117c-44.25177,-16.59557 -105.1022,-35.31877 -139.99545,-80.85021c-34.89325,-45.53144 -13.61687,-88.08417 13.61689,-106.38185c27.23375,-18.29768 71.48247,0.00001 82.12372,22.12743c-2.5501,-23.40401 15.74759,-56.59515 53.61952,-60.4249c37.87193,-3.82975 64.25463,16.59557 72.33966,52.33987c8.08503,35.7443 -28.08481,98.29684 -28.08788,98.29683" stroke-width="6" stroke="#000000" fill="none"/>
  <path id="svg_4" d="m277.87248,107.65843c-5.95739,3.82975 -33.61667,28.51033 -28.93586,75.74388c4.6808,47.23354 81.70125,141.27511 81.27573,141.27511c-0.42553,0 91.91392,-38.29747 124.25401,-64.68017c32.34008,-26.3827 51.4888,-74.04178 22.12741,-108.93502c-29.36139,-34.89324 -93.19665,-19.57426 -102.12965,5.95738c5.10941,-25.53165 -31.48594,-62.127 -66.3792,-56.59514" stroke-width="6" stroke="#000000" fill="none"/>
</svg>
